<?xml version="1.0" encoding="UTF-8"?>
<svg version="1.1" xmlns="http://www.w3.org/2000/svg" width="500" height="500">
<path d="M0 0 C165 0 330 0 500 0 C500 165 500 330 500 500 C335 500 170 500 0 500 C0 335 0 170 0 0 Z " fill="#FEFEFE" transform="translate(0,0)"/>
<path d="M0 0 C7.86969069 4.2952892 13.56973323 10.10474896 17 18.4375 C18.18756771 22.97585045 18.14488209 27.48225484 18.1418457 32.13989258 C18.14532013 33.00559372 18.14879456 33.87129486 18.15237427 34.76322937 C18.15971107 36.63856684 18.16506748 38.51391288 18.16866493 40.38926125 C18.17585316 43.36176651 18.19153724 46.33410889 18.21000671 49.30656433 C18.26236656 57.75651831 18.31044277 66.20638139 18.32592773 74.65649414 C18.33602877 79.83011959 18.36540466 85.00333204 18.40724754 90.17679405 C18.41952942 92.14344848 18.42468396 94.11016129 18.42244911 96.0768528 C18.42008682 98.83398911 18.44233192 101.58994721 18.4699707 104.34692383 C18.46336929 105.15187286 18.45676788 105.9568219 18.44996643 106.78616333 C18.55136752 112.97584785 20.10582833 118.37681635 24.44714832 122.96790791 C30.69523515 128.37803708 35.3870049 128.88053007 43.5078125 128.75390625 C49.46688548 128.21399024 53.12845728 126.30904272 57.3125 122.125 C60.95016209 116.33168629 62.36710754 111.92393405 62.37109375 105.0703125 C62.38847759 103.67577881 62.40606196 102.28124762 62.42382812 100.88671875 C62.43386684 98.72570097 62.43750186 96.56484866 62.43579102 94.40380859 C62.45591901 82.63027573 63.80499837 74.1314695 72.06640625 65.23046875 C79.95764335 57.9131398 87.57005037 56.89162741 98 57.0859375 C103.23647396 57.3771246 106.87725816 59.28102578 111 62.4375 C111.886875 62.994375 112.77375 63.55125 113.6875 64.125 C120.71357429 71.15107429 123.14222716 78.6145724 123.18945312 88.30493164 C123.20189308 89.66673302 123.20189308 89.66673302 123.21458435 91.05604553 C123.23199814 93.03178722 123.24716131 95.00754971 123.26036072 96.98332405 C123.28144295 100.12642284 123.30847252 103.26942119 123.33703613 106.41246033 C123.39676581 113.10826734 123.44873063 119.80412367 123.5 126.5 C123.5595654 134.21239392 123.6224115 141.92474106 123.69187927 149.63705254 C123.71805858 152.704151 123.73912486 155.771255 123.7598877 158.83839417 C123.8027224 164.37234492 123.88612248 169.90457672 124 175.4375 C124.01519684 176.29387432 124.03039368 177.15024864 124.04605103 178.0325737 C124.0979084 180.47406548 124.17771028 182.91291535 124.26757812 185.35327148 C124.28060722 186.0578225 124.29363632 186.76237352 124.30706024 187.48827457 C124.57674125 193.33726086 126.41855293 198.63031747 130.41095734 202.97183895 C136.21173229 208.06627438 141.50532435 208.89716193 148.9921875 208.75 C154.82662431 208.14382475 158.9904099 205.85749673 162.875 201.5 C166.64600552 196.06531557 167.29778535 191.58275692 167.421875 185.05859375 C167.47806219 183.39774873 167.5353914 181.73694202 167.59375 180.07617188 C167.67574451 177.48529193 167.74958766 174.89510744 167.80273438 172.3034668 C168.05967625 160.7466199 168.4690353 149.78460056 177.31542969 141.18725586 C183.64950552 135.93269116 189.53069442 132.88787928 197.875 133.0625 C198.94161865 133.08098999 198.94161865 133.08098999 200.02978516 133.09985352 C209.83750392 133.4140158 214.66958252 136.31194944 221.79296875 143.01953125 C227.30550658 149.0589311 229.14930757 155.61402946 229.14717102 163.64039612 C229.15084771 164.37911026 229.1545244 165.11782441 229.1583125 165.87892383 C229.16935085 168.36142822 229.17319348 170.84389075 229.17700195 173.32641602 C229.18326664 175.10371534 229.18991344 176.88101336 229.19691467 178.65830994 C229.21796198 184.50266609 229.22831966 190.34702251 229.23828125 196.19140625 C229.24232896 198.20422822 229.24644589 200.21705006 229.25063133 202.22987175 C229.26968675 211.6890893 229.28391542 221.14829903 229.2922433 230.60753208 C229.30200872 241.51914147 229.32830865 252.43054762 229.36874419 263.34208542 C229.39893592 271.77960141 229.4137152 280.21705927 229.41702431 288.65462822 C229.41937188 293.69192292 229.42829378 298.7290006 229.45348549 303.76623726 C229.47682378 308.50967718 229.48097631 313.25275809 229.47072411 317.99624062 C229.47022999 319.73200426 229.47651373 321.46778591 229.49028015 323.20349503 C229.58682079 336.1033095 228.34773196 345.81750692 219.15625 355.5234375 C211.91948296 361.94737926 204.0022667 362.87087414 194.609375 362.7734375 C186.28146111 361.99832863 180.61505824 357.59266339 174.7890625 351.890625 C168.61438436 343.42403576 168.41037837 335.01833349 168.42578125 324.87890625 C168.41329884 323.36545727 168.39895451 321.85202264 168.38285828 320.33860779 C168.34499259 316.36549898 168.3296857 312.39263793 168.32006836 308.41937256 C168.30760055 304.4337966 168.27805191 300.44836741 168.24804688 296.46289062 C168.24228575 295.68809042 168.23652462 294.91329021 168.23058891 294.11501122 C168.15661296 276.88002515 168.15661296 276.88002515 167.73046875 259.65234375 C167.66508911 257.74956665 167.66508911 257.74956665 167.59838867 255.80834961 C166.36821628 248.87852906 162.59968655 244.43727611 157 240.4375 C151.18700693 237.62986389 145.32627787 237.68873764 139 238.4375 C133.03169667 240.70845818 129.28703493 244.79029003 125.9370079 250.13268852 C124.63000563 253.34759612 124.56467901 256.29091291 124.38287354 259.75198364 C124.34524092 260.45989394 124.3076083 261.16780424 124.26883531 261.89716637 C123.91548879 269.06525506 123.86227584 276.22983628 123.87402344 283.40576172 C123.87262304 284.82045039 123.87072011 286.23513865 123.86836243 287.64982605 C123.86392132 290.65886649 123.86201062 293.66789349 123.86190033 296.6769371 C123.86074479 301.4444997 123.84780118 306.21198757 123.83233643 310.97952271 C123.82976357 311.78930506 123.82719072 312.59908741 123.8245399 313.43340862 C123.81927548 315.08697644 123.81399 316.74054419 123.80868387 318.39411187 C123.77374387 329.46653075 123.74703088 340.53884922 123.74951172 351.61132812 C123.75110349 359.12018834 123.73500696 366.62878589 123.69880509 374.13756192 C123.6804274 378.0971213 123.67093199 382.05624226 123.68328094 386.01583481 C123.69477191 389.73448951 123.68288935 393.45235747 123.65364647 397.17090797 C123.64392095 399.17030825 123.65870816 401.16978175 123.67445374 403.16914368 C123.56312489 412.90618571 121.2669524 419.81297549 114.9375 427.25 C108.66893264 432.96346744 100.89360936 435.68217169 92.5 436.125 C84.25839584 435.7400628 77.5164205 432.84048758 71.578125 427.09375 C64.80782185 419.08799007 62.54097068 411.81696153 62.62818909 401.53186035 C62.62245224 400.07837118 62.62245224 400.07837118 62.6165995 398.59551859 C62.6073482 395.36366065 62.61928481 392.1322349 62.63110352 388.90039062 C62.62863448 386.57724327 62.62479502 384.25409703 62.61968994 381.93095398 C62.61136152 376.93551418 62.61215143 371.94018841 62.61987495 366.94474792 C62.63048547 359.71357939 62.62204274 352.48254916 62.60731315 345.25139195 C62.58356753 333.5063013 62.57017977 321.76122677 62.56616211 310.01611328 C62.56591724 309.31396008 62.56567237 308.61180687 62.56542008 307.8883763 C62.56287389 300.05381875 62.56230765 292.21926244 62.56335449 284.38470459 C62.56368754 281.5427653 62.56397293 278.70082602 62.56420898 275.85888672 C62.56427177 275.15759378 62.56433456 274.45630084 62.56439925 273.7337566 C62.56500451 262.03102114 62.55010666 250.32836009 62.52337593 238.62565565 C62.50657752 230.7733522 62.50838045 222.9213407 62.52419865 215.06903839 C62.52999411 210.18368996 62.51925822 205.29848008 62.50395203 200.41315651 C62.50022488 198.14925516 62.50333646 195.88533056 62.51382256 193.62145042 C62.52719423 190.52832991 62.51598236 187.4362197 62.49879456 184.34313965 C62.50860133 183.44974459 62.51840811 182.55634953 62.52851206 181.6358819 C62.4506542 174.84944912 60.72693049 169.5975671 56.25390625 164.4140625 C55.41666016 163.74503906 55.41666016 163.74503906 54.5625 163.0625 C54.00691406 162.60101563 53.45132813 162.13953125 52.87890625 161.6640625 C47.19219434 157.95173913 41.60738327 157.70437742 35 158.4375 C28.82345906 160.20373688 24.47725944 164.11087009 21 169.4375 C18.78073315 173.8236315 18.72447406 177.92886441 18.76190186 182.74061584 C18.76034285 183.57354941 18.75878384 184.40648298 18.75717759 185.26465696 C18.75422343 188.05420893 18.76539404 190.84352734 18.77636719 193.63305664 C18.77689147 195.63400266 18.77645567 197.63494913 18.77513123 199.63589478 C18.77379738 203.94546208 18.77820986 208.25497244 18.78673553 212.56453133 C18.79911987 219.38586596 18.79216635 226.20709481 18.78131104 233.02842712 C18.75285019 252.42612514 18.74037797 271.82373293 18.77001953 291.22143555 C18.78622762 301.93438652 18.78102782 312.6471069 18.75222325 323.36003393 C18.73795362 329.02565669 18.73485701 334.69079958 18.75844574 340.35640144 C18.78065202 345.69098401 18.7749774 351.02482286 18.74846077 356.35937881 C18.74370923 358.31037725 18.74908627 360.26143255 18.76569176 362.2123661 C18.86966644 375.29798369 17.69001446 385.17564041 8.6875 395.4375 C2.02715606 401.50581337 -6.44782885 403.84977809 -15.28515625 403.70703125 C-23.1847889 402.92275117 -28.99466247 399.09311836 -34.89453125 394.0234375 C-41.8688816 385.45753781 -42.72508761 377.41098713 -42.62818909 366.63525391 C-42.6332412 365.14881346 -42.64047514 363.66237912 -42.64968723 362.17595863 C-42.66854232 358.11308471 -42.65641429 354.05081618 -42.6389643 349.98795795 C-42.62555706 345.59795836 -42.64103939 341.20804539 -42.65278625 336.8180542 C-42.67114221 328.22666967 -42.6626642 319.63551295 -42.64469803 311.04413557 C-42.6306587 304.06027083 -42.6267821 297.07646783 -42.6301403 290.09259033 C-42.63061775 289.09770241 -42.63109519 288.1028145 -42.6315871 287.07777846 C-42.63261345 285.0565311 -42.63366881 283.03528375 -42.63475286 281.01403642 C-42.64331579 263.15058814 -42.62665814 245.28724968 -42.59692383 227.42382812 C-42.56808745 210.09956246 -42.56100343 192.77545496 -42.57641602 175.45117188 C-42.59318606 156.57527204 -42.59720417 137.69944726 -42.57970566 118.82354546 C-42.57786131 116.80983354 -42.57602659 114.79612161 -42.57420158 112.78240967 C-42.57328949 111.79168697 -42.5723774 110.80096427 -42.57143768 109.78021967 C-42.56583729 102.80669361 -42.56913483 95.83320425 -42.57574654 88.85968018 C-42.58348685 80.35847681 -42.57670197 71.85742902 -42.5515715 63.35625696 C-42.53909267 59.02080052 -42.53291026 54.68558607 -42.54411316 50.35012054 C-42.55418426 46.37757505 -42.54563529 42.40551125 -42.52253198 38.43302417 C-42.5173903 36.99978454 -42.51890265 35.56650144 -42.52792663 34.13328099 C-42.58872995 23.59563535 -41.44472403 13.96303676 -33.86328125 6.04296875 C-24.34885087 -2.15499957 -11.89422645 -4.71241844 0 0 Z " fill="#63a6c9" transform="translate(261,54.5625)"/>
<path d="M0 0 C8.82786699 5.0783966 13.69169687 11.76840709 16.5 21.5 C17.0323541 25.63621816 17.04123153 29.71309173 17.00793457 33.87928772 C17.01417453 35.09021337 17.0204145 36.30113903 17.02684355 37.5487594 C17.03997009 40.88397853 17.03533896 44.21828732 17.02289867 47.55344975 C17.01380765 51.16019085 17.02783782 54.76685531 17.03881836 58.37358093 C17.05656463 65.42855489 17.0527812 72.48335821 17.0411678 79.53833873 C17.03211908 85.27363993 17.03091568 91.00889345 17.03526306 96.74419975 C17.03587599 97.56175327 17.03648893 98.3793068 17.03712043 99.22163467 C17.03839938 100.88267976 17.03969624 102.54372484 17.0410108 104.2047699 C17.052405 119.76423457 17.03932075 135.32360483 17.01780933 150.88305401 C16.99993604 164.22392244 17.00304659 177.56465165 17.02148438 190.90551758 C17.04290582 206.41241908 17.05131 221.91923794 17.03903532 237.42615217 C17.03776117 239.0806401 17.03650369 240.73512805 17.03526306 242.38961601 C17.03433741 243.61055654 17.03433741 243.61055654 17.03339306 244.85616254 C17.02994422 250.58282491 17.03575834 256.30943471 17.04518127 262.03608894 C17.05641666 269.01741867 17.05332883 275.99856857 17.0320583 282.97987778 C17.02156897 286.53955626 17.01738955 290.09893525 17.03065491 293.6586113 C17.04483333 297.52180768 17.02786741 301.38451709 17.00793457 305.24769592 C17.01685746 306.36637985 17.02578034 307.48506377 17.03497362 308.63764721 C16.93665097 318.46744865 14.12980079 325.52684435 7.41796875 332.7109375 C0.4133666 339.24476191 -7.60054044 342.09998329 -17.1484375 341.8046875 C-25.70225277 340.69638585 -33.08964306 336.1450024 -38.5 329.5 C-44.69393641 321.11938612 -44.17960239 312.14988434 -44.09158516 302.20478439 C-44.06596897 299.28611501 -44.07102618 296.36884416 -44.08348083 293.45010376 C-44.10413183 287.25824546 -44.08459181 281.06682903 -44.0625 274.875 C-44.04134272 267.6877893 -44.03688991 260.50103266 -44.06300163 253.31383133 C-44.06634759 250.44866887 -44.04519734 247.5843881 -44.02259827 244.71932983 C-44.02511069 242.95269584 -44.02867189 241.18606292 -44.03344727 239.41943359 C-44.02056168 238.63169052 -44.00767609 237.84394745 -43.99440002 237.03233337 C-44.05249172 230.5568153 -46.01358186 225.44055844 -50.2109375 220.4765625 C-56.90771928 215.03739232 -62.93756051 213.67821788 -71.5 214.5 C-78.04401074 215.77180421 -81.8145325 219.04222169 -85.5 224.5 C-87.29181599 227.56137629 -87.74697472 229.75795825 -87.73950195 233.29345703 C-87.74323318 234.24189484 -87.74696442 235.19033264 -87.75080872 236.16751099 C-87.74667465 237.18731049 -87.74254059 238.20710999 -87.73828125 239.2578125 C-87.75370849 241.43229785 -87.77001267 243.60677713 -87.78710938 245.78125 C-87.80351591 249.19772789 -87.81252337 252.61375966 -87.80541992 256.03027344 C-87.80278432 259.33579391 -87.83104097 262.63997215 -87.86328125 265.9453125 C-87.85307449 266.95296661 -87.84286774 267.96062073 -87.83235168 268.99880981 C-87.95408279 277.92808124 -90.78988447 284.76236175 -96.8125 291.375 C-104.15855256 298.16089604 -112.42191502 300.01110254 -122.234375 299.90234375 C-129.74675806 298.97677502 -136.30872049 295.19586252 -141.5 289.75 C-148.35957062 280.59777136 -149.08673007 271.73127786 -149.01757812 260.55444336 C-149.02300862 259.07004615 -149.03013645 257.58565434 -149.03881836 256.10127258 C-149.05694314 252.09711964 -149.05002995 248.09338222 -149.03730202 244.08922267 C-149.0271196 239.88406109 -149.03658199 235.67893323 -149.04284668 231.47377014 C-149.05010711 224.41531029 -149.04057685 217.3570183 -149.02148438 210.29858398 C-148.99971021 202.1550359 -149.0067773 194.01188838 -149.02879 185.86834997 C-149.04697981 178.85656603 -149.04948512 171.84490221 -149.03903532 164.83310229 C-149.0328211 160.65390084 -149.03190752 156.4748873 -149.04518127 152.29569817 C-149.05679187 148.36629421 -149.04862002 144.43740361 -149.02560425 140.50805473 C-149.02034515 139.07182159 -149.02178265 137.63554474 -149.03065491 136.19932938 C-149.07645302 128.0282845 -148.61546778 121.64747303 -144.5 114.5 C-143.984375 113.46875 -143.46875 112.4375 -142.9375 111.375 C-138.7075193 106.38579199 -132.12875504 101.50582572 -125.5 100.5 C-116.02667735 99.77526493 -108.35385115 99.48689521 -100.5 105.5 C-99.613125 106.056875 -98.72625 106.61375 -97.8125 107.1875 C-92.49639211 112.50360789 -88.39106017 119.42301002 -88.3581543 127.02807617 C-88.35111984 127.94300339 -88.34408539 128.8579306 -88.33683777 129.80058289 C-88.33267349 130.78807022 -88.32850922 131.77555756 -88.32421875 132.79296875 C-88.30101294 134.88868184 -88.2768953 136.98438499 -88.25195312 139.08007812 C-88.21690375 142.38035662 -88.18752947 145.68027131 -88.17407227 148.98071289 C-88.15853336 152.16857961 -88.11827778 155.35538484 -88.07421875 158.54296875 C-88.07612717 159.52033493 -88.07803558 160.49770111 -88.08000183 161.50468445 C-87.95340337 168.6494379 -86.60110291 174.36318381 -81.46484375 179.55859375 C-80.79582031 180.01363281 -80.12679687 180.46867188 -79.4375 180.9375 C-78.43009766 181.64712891 -78.43009766 181.64712891 -77.40234375 182.37109375 C-72.20914592 185.45288877 -66.33674063 185.02589922 -60.5 184.5 C-53.44604503 182.48293771 -49.4913928 177.96607131 -45.88534546 171.68965149 C-43.48662232 165.86720407 -44.10313658 159.4636873 -44.14697266 153.27807617 C-44.14614094 151.83515789 -44.14392193 150.39223985 -44.14042664 148.94932556 C-44.13549132 145.85166373 -44.13954591 142.75419173 -44.15044022 139.65654564 C-44.16685616 134.75103894 -44.15830921 129.84576807 -44.14559937 124.94026184 C-44.11553484 111.87383968 -44.11691457 98.80746065 -44.13585222 85.74102145 C-44.14820943 77.15160449 -44.14625716 68.56245615 -44.11746442 59.97306997 C-44.10228713 55.10420413 -44.10962897 50.23607041 -44.13417459 45.3672508 C-44.1442971 42.32818982 -44.13349709 39.28945916 -44.11705971 36.25043678 C-44.11362918 34.85008793 -44.11861439 33.44968684 -44.13302803 32.04940796 C-44.23072243 21.92496561 -42.73315049 14.67385059 -36.25 6.75 C-25.33579291 -2.1798058 -13.4486647 -6.27377658 0 0 Z " fill="#63a6c9" transform="translate(158.5,87.5)"/>
<path d="M0 0 C8.14876379 4.61291835 13.4858894 10.7320049 16.625 19.5625 C17.78742254 29.06530424 17.35933955 37.5972667 11.625 45.5625 C9.125 48.4375 9.125 48.4375 6.625 50.5625 C5.84125 51.26375 5.0575 51.965 4.25 52.6875 C-3.9210605 58.52397178 -12.1511798 58.67385695 -21.96484375 57.1640625 C-29.22986219 55.19778334 -35.07580831 50.26310378 -39.015625 43.921875 C-43.20475515 35.68806747 -44.96241171 27.98471425 -42.69140625 18.796875 C-39.61116919 10.46361955 -34.2218157 3.85573728 -26.375 -0.4375 C-17.68789754 -3.86152506 -8.52381461 -3.90494553 0 0 Z " fill="#0097b2" transform="translate(367.375,12.4375)"/>
</svg>